# xmcd
#
# Track frame offsets:
#	150
#	14135
#	27132
#	42030
#	57495
#	70475
#	83477
#	98222
#	110742
#	124717
#	137962
#	152325
#	167775
#	181085
#	194940
#	207262
#	220237
#	234117
#	246880
#	262125
#	276495
#	290257
#	301812
#
# Disc length: 4193 seconds
# Revision: 0
# Processed by: cddbd v1.5.2PL0 Copyright (c) Steve Scherf et al.
# Submitted via: dBpowerAMP V12.0
#
DISCID=56105f17
DTITLE=Various Artist - Times Ain't Like They Used to Be, Vol. 3: Early American Rural Music
DYEAR=1999
DGENRE=Country
TTITLE0=Blind Willie Johnson - I Know His Blood Can Make Me Whole
TTITLE1=Ashley's Melody Men - Bath House Blues
TTITLE2=Frank Hutchison - Worried Blues
TTITLE3=Jelly Jaw Short - Snake Doctor Blues
TTITLE4=The East Texas Serenaders - Acorn Stomp
TTITLE5=Carlisle Brothers - Sal Got a Meatskin
TTITLE6=Sleepy John Estes - Streetcar Blues
TTITLE7=Luke Highnight and His Ozark Strutters - Fort Smith Breakdown
TTITLE8=Wilmer Watts and His Lonely Eagles - Sleepy Desert
TTITLE9=Son House - Walking Blues
TTITLE10=Allison's Sacred Harp Singers - Sweet Rivers
TTITLE11=The Williamson Brothers and Curry - Gonna Die With My Hammer in My Hand
TTITLE12=Charley Patton - Mean Black Cat
TTITLE13=Lowe Stokes - Billy in the Lowground
TTITLE14=Jelly Roll Anderson - Good Times Blues
TTITLE15=Fiddlin' John Carson and His Virginia Reelers - Christmas Time Will Soon Be Over
TTITLE16=Fruit Jar Guzzlers - Steel Driving Man
TTITLE17=Skip James - I'm So Glad
TTITLE18=Uncle Dave Macon and His Fruit Jar Drinkers - Rock About My Sara Jane
TTITLE19=Cap, Andy and Flip - I'm Taking My Audition to Sing up in the Sky
TTITLE20=Buster Johnson and James Cole's Washboard Band - Undertaker Blues
TTITLE21=Ocar Harper's Texas String Band - Sally Johnson
TTITLE22=Fa So La Singers - I'll Stay on the Right Road Now
EXTD=
EXTT0=
EXTT1=
EXTT2=
EXTT3=
EXTT4=
EXTT5=
EXTT6=
EXTT7=
EXTT8=
EXTT9=
EXTT10=
EXTT11=
EXTT12=
EXTT13=
EXTT14=
EXTT15=
EXTT16=
EXTT17=
EXTT18=
EXTT19=
EXTT20=
EXTT21=
EXTT22=
PLAYORDER=
